#N canvas 913 47 451 700 10;
#X obj 40 429 dac~;
#X obj 78 45 loadbang;
#X msg 191 99 \; pd dsp 1;
#X obj 69 299 sine~;
#X msg 97 203 100;
#X msg 134 209 500;
#X obj 80 237 biscale~;
#N canvas 0 50 450 250 (subpatch) 0;
#X array tab 4096 float 2;
#X coords 0 1 4096 -1 200 140 1;
#X restore 148 370 graph;
#X obj 296 314 tabwrite~ tab;
#X obj 290 227 bng 15 250 50 0 empty empty empty 17 7 0 10 -262144
-1 -1;
#X obj 286 267 metro 100;
#X msg 147 268 0.5;
#X obj 20 76 s lb;
#X obj 266 192 r lb;
#X obj 175 170 r lb;
#X obj 79 161 sine~ 0.1 1;
#X connect 1 0 2 0;
#X connect 1 0 12 0;
#X connect 3 0 0 0;
#X connect 3 0 0 1;
#X connect 3 0 8 0;
#X connect 4 0 6 1;
#X connect 5 0 6 2;
#X connect 6 0 3 0;
#X connect 9 0 10 0;
#X connect 10 0 8 0;
#X connect 11 0 3 1;
#X connect 13 0 10 0;
#X connect 14 0 11 0;
#X connect 14 0 5 0;
#X connect 14 0 4 0;
#X connect 15 0 6 0;
